<svg width="93" height="33" viewBox="0 0 93 33" fill="none" xmlns="http://www.w3.org/2000/svg">
<path d="M11.64 25.512C10.408 26.728 8.904 27.336 7.128 27.336C5.352 27.336 3.848 26.728 2.616 25.512C1.4 24.28 0.792 22.776 0.792 21C0.792 19.224 1.4 17.728 2.616 16.512C3.848 15.28 5.352 14.664 7.128 14.664C8.904 14.664 10.408 15.28 11.64 16.512C12.872 17.728 13.488 19.224 13.488 21C13.488 22.776 12.872 24.28 11.64 25.512ZM4.8 23.376C5.424 24 6.2 24.312 7.128 24.312C8.056 24.312 8.832 24 9.456 23.376C10.08 22.752 10.392 21.96 10.392 21C10.392 20.04 10.08 19.248 9.456 18.624C8.832 18 8.056 17.688 7.128 17.688C6.2 17.688 5.424 18 4.8 18.624C4.192 19.248 3.888 20.04 3.888 21C3.888 21.96 4.192 22.752 4.8 23.376ZM18.762 17.064C19.05 16.296 19.522 15.72 20.178 15.336C20.85 14.952 21.594 14.76 22.41 14.76V18.216C21.466 18.104 20.618 18.296 19.866 18.792C19.13 19.288 18.762 20.112 18.762 21.264V27H15.666V15H18.762V17.064ZM32.8714 10.2H35.9674V27H32.8714V25.584C31.9594 26.752 30.6634 27.336 28.9834 27.336C27.3674 27.336 25.9834 26.728 24.8314 25.512C23.6954 24.28 23.1274 22.776 23.1274 21C23.1274 19.224 23.6954 17.728 24.8314 16.512C25.9834 15.28 27.3674 14.664 28.9834 14.664C30.6634 14.664 31.9594 15.248 32.8714 16.416V10.2ZM27.1594 23.448C27.7994 24.072 28.5994 24.384 29.5594 24.384C30.5194 24.384 31.3114 24.072 31.9354 23.448C32.5594 22.808 32.8714 21.992 32.8714 21C32.8714 20.008 32.5594 19.2 31.9354 18.576C31.3114 17.936 30.5194 17.616 29.5594 17.616C28.5994 17.616 27.7994 17.936 27.1594 18.576C26.5354 19.2 26.2234 20.008 26.2234 21C26.2234 21.992 26.5354 22.808 27.1594 23.448ZM40.3348 13.56C39.8228 13.56 39.3748 13.376 38.9908 13.008C38.6228 12.624 38.4388 12.176 38.4388 11.664C38.4388 11.152 38.6228 10.704 38.9908 10.32C39.3748 9.936 39.8228 9.744 40.3348 9.744C40.8628 9.744 41.3108 9.936 41.6788 10.32C42.0628 10.704 42.2548 11.152 42.2548 11.664C42.2548 12.176 42.0628 12.624 41.6788 13.008C41.3108 13.376 40.8628 13.56 40.3348 13.56ZM38.7988 27V15H41.8948V27H38.7988ZM51.4005 14.664C52.7125 14.664 53.7925 15.104 54.6405 15.984C55.5045 16.864 55.9365 18.08 55.9365 19.632V27H52.8405V20.016C52.8405 19.216 52.6245 18.608 52.1925 18.192C51.7605 17.76 51.1845 17.544 50.4645 17.544C49.6645 17.544 49.0245 17.792 48.5445 18.288C48.0645 18.784 47.8245 19.528 47.8245 20.52V27H44.7285V15H47.8245V16.344C48.5765 15.224 49.7685 14.664 51.4005 14.664ZM67.7721 15H70.7961V26.424C70.7961 28.28 70.1801 29.696 68.9481 30.672C67.7321 31.648 66.2601 32.136 64.5321 32.136C63.2361 32.136 62.0921 31.888 61.1001 31.392C60.1241 30.896 59.3721 30.168 58.8441 29.208L61.4841 27.696C62.0921 28.816 63.1401 29.376 64.6281 29.376C65.6041 29.376 66.3721 29.12 66.9321 28.608C67.4921 28.096 67.7721 27.368 67.7721 26.424V25.128C66.8601 26.344 65.5801 26.952 63.9321 26.952C62.2361 26.952 60.8121 26.36 59.6601 25.176C58.5241 23.976 57.9561 22.52 57.9561 20.808C57.9561 19.112 58.5321 17.664 59.6841 16.464C60.8361 15.264 62.2521 14.664 63.9321 14.664C65.5801 14.664 66.8601 15.272 67.7721 16.488V15ZM61.9881 23.184C62.6281 23.792 63.4361 24.096 64.4121 24.096C65.3881 24.096 66.1881 23.792 66.8121 23.184C67.4521 22.56 67.7721 21.768 67.7721 20.808C67.7721 19.864 67.4521 19.088 66.8121 18.48C66.1881 17.856 65.3881 17.544 64.4121 17.544C63.4361 17.544 62.6281 17.856 61.9881 18.48C61.3641 19.088 61.0521 19.864 61.0521 20.808C61.0521 21.768 61.3641 22.56 61.9881 23.184ZM83.8275 25.512C82.5955 26.728 81.0915 27.336 79.3155 27.336C77.5395 27.336 76.0355 26.728 74.8035 25.512C73.5875 24.28 72.9795 22.776 72.9795 21C72.9795 19.224 73.5875 17.728 74.8035 16.512C76.0355 15.28 77.5395 14.664 79.3155 14.664C81.0915 14.664 82.5955 15.28 83.8275 16.512C85.0595 17.728 85.6755 19.224 85.6755 21C85.6755 22.776 85.0595 24.28 83.8275 25.512ZM76.9875 23.376C77.6115 24 78.3875 24.312 79.3155 24.312C80.2435 24.312 81.0195 24 81.6435 23.376C82.2675 22.752 82.5795 21.96 82.5795 21C82.5795 20.04 82.2675 19.248 81.6435 18.624C81.0195 18 80.2435 17.688 79.3155 17.688C78.3875 17.688 77.6115 18 76.9875 18.624C76.3795 19.248 76.0755 20.04 76.0755 21C76.0755 21.96 76.3795 22.752 76.9875 23.376ZM91.0935 26.712C90.6935 27.112 90.2135 27.312 89.6535 27.312C89.0935 27.312 88.6135 27.112 88.2135 26.712C87.8135 26.312 87.6135 25.832 87.6135 25.272C87.6135 24.712 87.8135 24.232 88.2135 23.832C88.6135 23.432 89.0935 23.232 89.6535 23.232C90.2135 23.232 90.6935 23.432 91.0935 23.832C91.4935 24.232 91.6935 24.712 91.6935 25.272C91.6935 25.832 91.4935 26.312 91.0935 26.712Z" fill="white"/>
</svg>
