<svg width="186" height="35" viewBox="0 0 186 35" fill="none" xmlns="http://www.w3.org/2000/svg">
<path d="M0 0.00756836H34.875V34.9889H0V0.00756836ZM37.7812 0.00756836H72.6562V34.9889H37.7812V0.00756836ZM75.5625 0.00756836H110.438V34.9889H75.5625V0.00756836ZM113.344 0.00756836H148.219V34.9889H113.344V0.00756836ZM151.125 0.00756836H186V34.9889H151.125V0.00756836Z" fill="#00B67A"/>
<path d="M17.4375 23.5855L22.7414 22.2372L24.9574 29.0877L17.4375 23.5855ZM29.6438 14.7308H20.3074L17.4375 5.9126L14.5676 14.7308H5.23126L12.7875 20.1966L9.91759 29.0149L17.4738 23.549L22.1238 20.1966L29.6438 14.7308ZM55.2188 23.5855L60.5227 22.2372L62.7387 29.0877L55.2188 23.5855ZM67.425 14.7308H58.0887L55.2188 5.9126L52.3488 14.7308H43.0125L50.5688 20.1966L47.6988 29.0149L55.2551 23.549L59.9051 20.1966L67.425 14.7308ZM93 23.5855L98.3039 22.2372L100.52 29.0877L93 23.5855ZM105.206 14.7308H95.8699L93 5.9126L90.1301 14.7308H80.7938L88.35 20.1966L85.4801 29.0149L93.0363 23.549L97.6863 20.1966L105.206 14.7308ZM130.781 23.5855L136.085 22.2372L138.301 29.0877L130.781 23.5855ZM142.988 14.7308H133.651L130.781 5.9126L127.911 14.7308H118.575L126.131 20.1966L123.261 29.0149L130.818 23.549L135.468 20.1966L142.988 14.7308ZM168.563 23.5855L173.866 22.2372L176.082 29.0877L168.563 23.5855ZM180.769 14.7308H171.432L168.563 5.9126L165.693 14.7308H156.356L163.913 20.1966L161.043 29.0149L168.599 23.549L173.249 20.1966L180.769 14.7308Z" fill="white"/>
</svg>
